<?xml version="1.0" encoding="UTF-8" standalone="no"?><svg xmlns="http://www.w3.org/2000/svg" xmlns:xlink="http://www.w3.org/1999/xlink" contentScriptType="application/ecmascript" contentStyleType="text/css" height="213px" preserveAspectRatio="none" style="width:567px;height:213px;" version="1.1" viewBox="0 0 567 213" width="567px" zoomAndPan="magnify"><defs><filter height="300%" id="fvimwv3y2ii3q" width="300%" x="-1" y="-1"><feGaussianBlur result="blurOut" stdDeviation="2.0"/><feColorMatrix in="blurOut" result="blurOut2" type="matrix" values="0 0 0 0 0 0 0 0 0 0 0 0 0 0 0 0 0 0 .4 0"/><feOffset dx="4.0" dy="4.0" in="blurOut2" result="blurOut3"/><feBlend in="SourceGraphic" in2="blurOut3" mode="normal"/></filter></defs><g><ellipse cx="288" cy="20" fill="#000000" filter="url(#fvimwv3y2ii3q)" rx="10" ry="10" style="stroke: none; stroke-width: 1.0;"/><polygon fill="#FEFECE" filter="url(#fvimwv3y2ii3q)" points="32,50,94,50,106,62,94,74,32,74,20,62,32,50" style="stroke: #A80036; stroke-width: 1.5;"/><text fill="#000000" font-family="sans-serif" font-size="11" lengthAdjust="spacingAndGlyphs" textLength="20" x="67" y="84.2104">yes</text><text fill="#000000" font-family="sans-serif" font-size="11" lengthAdjust="spacingAndGlyphs" textLength="62" x="32" y="65.8081">condition A</text><rect fill="#FEFECE" filter="url(#fvimwv3y2ii3q)" height="33.9688" rx="12.5" ry="12.5" style="stroke: #A80036; stroke-width: 1.5;" width="79" x="23.5" y="106.8047"/><text fill="#000000" font-family="sans-serif" font-size="12" lengthAdjust="spacingAndGlyphs" textLength="59" x="33.5" y="127.9434">Pattern A</text><polygon fill="#FEFECE" filter="url(#fvimwv3y2ii3q)" points="138,50,201,50,213,62,201,74,138,74,126,62,138,50" style="stroke: #A80036; stroke-width: 1.5;"/><text fill="#000000" font-family="sans-serif" font-size="11" lengthAdjust="spacingAndGlyphs" textLength="20" x="173.5" y="84.2104">yes</text><text fill="#000000" font-family="sans-serif" font-size="11" lengthAdjust="spacingAndGlyphs" textLength="63" x="138" y="65.8081">condition B</text><rect fill="#FEFECE" filter="url(#fvimwv3y2ii3q)" height="33.9688" rx="12.5" ry="12.5" style="stroke: #A80036; stroke-width: 1.5;" width="79" x="130" y="106.8047"/><text fill="#000000" font-family="sans-serif" font-size="12" lengthAdjust="spacingAndGlyphs" textLength="59" x="140" y="127.9434">Pattern B</text><polygon fill="#FEFECE" filter="url(#fvimwv3y2ii3q)" points="245,50,308,50,320,62,308,74,245,74,233,62,245,50" style="stroke: #A80036; stroke-width: 1.5;"/><text fill="#000000" font-family="sans-serif" font-size="11" lengthAdjust="spacingAndGlyphs" textLength="20" x="280.5" y="84.2104">yes</text><text fill="#000000" font-family="sans-serif" font-size="11" lengthAdjust="spacingAndGlyphs" textLength="63" x="245" y="65.8081">condition C</text><rect fill="#FEFECE" filter="url(#fvimwv3y2ii3q)" height="33.9688" rx="12.5" ry="12.5" style="stroke: #A80036; stroke-width: 1.5;" width="79" x="237" y="106.8047"/><text fill="#000000" font-family="sans-serif" font-size="12" lengthAdjust="spacingAndGlyphs" textLength="59" x="247" y="127.9434">Pattern C</text><polygon fill="#FEFECE" filter="url(#fvimwv3y2ii3q)" points="352,50,415,50,427,62,415,74,352,74,340,62,352,50" style="stroke: #A80036; stroke-width: 1.5;"/><text fill="#000000" font-family="sans-serif" font-size="11" lengthAdjust="spacingAndGlyphs" textLength="20" x="387.5" y="84.2104">yes</text><text fill="#000000" font-family="sans-serif" font-size="11" lengthAdjust="spacingAndGlyphs" textLength="63" x="352" y="65.8081">condition D</text><text fill="#000000" font-family="sans-serif" font-size="11" lengthAdjust="spacingAndGlyphs" textLength="42" x="427" y="59.4058">nothing</text><rect fill="#FEFECE" filter="url(#fvimwv3y2ii3q)" height="33.9688" rx="12.5" ry="12.5" style="stroke: #A80036; stroke-width: 1.5;" width="80" x="343.5" y="106.8047"/><text fill="#000000" font-family="sans-serif" font-size="12" lengthAdjust="spacingAndGlyphs" textLength="60" x="353.5" y="127.9434">Pattern D</text><rect fill="#FEFECE" filter="url(#fvimwv3y2ii3q)" height="33.9688" rx="12.5" ry="12.5" style="stroke: #A80036; stroke-width: 1.5;" width="109" x="447" y="103.4023"/><text fill="#000000" font-family="sans-serif" font-size="12" lengthAdjust="spacingAndGlyphs" textLength="89" x="457" y="124.541">Pattern E else</text><ellipse cx="288" cy="191.7734" fill="#FFFFFF" filter="url(#fvimwv3y2ii3q)" rx="11" ry="11" style="stroke: #000000; stroke-width: 1.0;"/><ellipse cx="288" cy="191.7734" fill="#000000" rx="6" ry="6" style="stroke: #7F7F7F; stroke-width: 1.0;"/><line style="stroke: #A80036; stroke-width: 1.5;" x1="63" x2="63" y1="74" y2="106.8047"/><polygon fill="#A80036" points="59,96.8047,63,106.8047,67,96.8047,63,100.8047" style="stroke: #A80036; stroke-width: 1.0;"/><line style="stroke: #A80036; stroke-width: 1.5;" x1="63" x2="63" y1="140.7734" y2="160.7734"/><polygon fill="#A80036" points="59,150.7734,63,160.7734,67,150.7734,63,154.7734" style="stroke: #A80036; stroke-width: 1.0;"/><line style="stroke: #A80036; stroke-width: 1.5;" x1="169.5" x2="169.5" y1="74" y2="106.8047"/><polygon fill="#A80036" points="165.5,96.8047,169.5,106.8047,173.5,96.8047,169.5,100.8047" style="stroke: #A80036; stroke-width: 1.0;"/><line style="stroke: #A80036; stroke-width: 1.5;" x1="169.5" x2="169.5" y1="140.7734" y2="160.7734"/><polygon fill="#A80036" points="165.5,150.7734,169.5,160.7734,173.5,150.7734,169.5,154.7734" style="stroke: #A80036; stroke-width: 1.0;"/><line style="stroke: #A80036; stroke-width: 1.5;" x1="276.5" x2="276.5" y1="74" y2="106.8047"/><polygon fill="#A80036" points="272.5,96.8047,276.5,106.8047,280.5,96.8047,276.5,100.8047" style="stroke: #A80036; stroke-width: 1.0;"/><line style="stroke: #A80036; stroke-width: 1.5;" x1="276.5" x2="276.5" y1="140.7734" y2="160.7734"/><polygon fill="#A80036" points="272.5,150.7734,276.5,160.7734,280.5,150.7734,276.5,154.7734" style="stroke: #A80036; stroke-width: 1.0;"/><line style="stroke: #A80036; stroke-width: 1.5;" x1="383.5" x2="383.5" y1="74" y2="106.8047"/><polygon fill="#A80036" points="379.5,96.8047,383.5,106.8047,387.5,96.8047,383.5,100.8047" style="stroke: #A80036; stroke-width: 1.0;"/><line style="stroke: #A80036; stroke-width: 1.5;" x1="383.5" x2="383.5" y1="140.7734" y2="160.7734"/><polygon fill="#A80036" points="379.5,150.7734,383.5,160.7734,387.5,150.7734,383.5,154.7734" style="stroke: #A80036; stroke-width: 1.0;"/><line style="stroke: #A80036; stroke-width: 1.5;" x1="106" x2="126" y1="62" y2="62"/><polygon fill="#A80036" points="116,58,126,62,116,66,120,62" style="stroke: #A80036; stroke-width: 1.0;"/><line style="stroke: #A80036; stroke-width: 1.5;" x1="213" x2="233" y1="62" y2="62"/><polygon fill="#A80036" points="223,58,233,62,223,66,227,62" style="stroke: #A80036; stroke-width: 1.0;"/><line style="stroke: #A80036; stroke-width: 1.5;" x1="320" x2="340" y1="62" y2="62"/><polygon fill="#A80036" points="330,58,340,62,330,66,334,62" style="stroke: #A80036; stroke-width: 1.0;"/><line style="stroke: #A80036; stroke-width: 1.5;" x1="288" x2="288" y1="30" y2="35"/><line style="stroke: #A80036; stroke-width: 1.5;" x1="288" x2="63" y1="35" y2="35"/><line style="stroke: #A80036; stroke-width: 1.5;" x1="63" x2="63" y1="35" y2="50"/><polygon fill="#A80036" points="59,40,63,50,67,40,63,44" style="stroke: #A80036; stroke-width: 1.0;"/><line style="stroke: #A80036; stroke-width: 1.5;" x1="427" x2="501.5" y1="62" y2="62"/><line style="stroke: #A80036; stroke-width: 1.5;" x1="501.5" x2="501.5" y1="62" y2="103.4023"/><polygon fill="#A80036" points="497.5,93.4023,501.5,103.4023,505.5,93.4023,501.5,97.4023" style="stroke: #A80036; stroke-width: 1.0;"/><line style="stroke: #A80036; stroke-width: 1.5;" x1="501.5" x2="501.5" y1="137.3711" y2="160.7734"/><polygon fill="#A80036" points="497.5,150.7734,501.5,160.7734,505.5,150.7734,501.5,154.7734" style="stroke: #A80036; stroke-width: 1.0;"/><line style="stroke: #A80036; stroke-width: 1.5;" x1="63" x2="501.5" y1="160.7734" y2="160.7734"/><line style="stroke: #A80036; stroke-width: 1.5;" x1="288" x2="288" y1="160.7734" y2="180.7734"/><polygon fill="#A80036" points="284,170.7734,288,180.7734,292,170.7734,288,174.7734" style="stroke: #A80036; stroke-width: 1.0;"/><!--MD5=[f85296712b2565d432bf9075a4c2869e]
@startuml
start
if (condition A) then (yes)
  :Pattern A;
elseif (condition B) then (yes)
  :Pattern B;
elseif (condition C) then (yes)
  :Pattern C;
elseif (condition D) then (yes)
  :Pattern D;
else (nothing)
  :Pattern E else;
endif
stop
@enduml

PlantUML version 1.2019.12(Sun Nov 03 10:24:54 UTC 2019)
(GPL source distribution)
Java Runtime: OpenJDK Runtime Environment
JVM: OpenJDK 64-Bit Server VM
Java Version: 1.8.0_232-heroku-b09
Operating System: Linux
Default Encoding: UTF-8
Language: en
Country: US
--></g></svg>